<svg xmlns="http://www.w3.org/2000/svg" viewBox="0 0 200 200" role="img" aria-label="GCash QR placeholder">
  <rect width="200" height="200" fill="#ffffff"/>
  <g fill="#0033FF">
    <!-- positioning markers -->
    <rect x="10" y="10" width="40" height="40"/>
    <rect x="20" y="20" width="20" height="20" fill="#ffffff"/>
    <rect x="25" y="25" width="10" height="10"/>

    <rect x="150" y="10" width="40" height="40"/>
    <rect x="160" y="20" width="20" height="20" fill="#ffffff"/>
    <rect x="165" y="25" width="10" height="10"/>

    <rect x="10" y="150" width="40" height="40"/>
    <rect x="20" y="160" width="20" height="20" fill="#ffffff"/>
    <rect x="25" y="165" width="10" height="10"/>

    <!-- noise -->
    <rect x="60" y="15" width="6" height="6"/>
    <rect x="72" y="15" width="6" height="6"/>
    <rect x="84" y="15" width="6" height="6"/>
    <rect x="96" y="15" width="6" height="6"/>
    <rect x="108" y="15" width="6" height="6"/>
    <rect x="120" y="15" width="6" height="6"/>
    <rect x="132" y="15" width="6" height="6"/>
    <rect x="60" y="27" width="6" height="6"/>
    <rect x="78" y="27" width="6" height="6"/>
    <rect x="96" y="27" width="6" height="6"/>
    <rect x="114" y="27" width="6" height="6"/>
    <rect x="132" y="27" width="6" height="6"/>
    <rect x="60" y="39" width="6" height="6"/>
    <rect x="66" y="39" width="6" height="6"/>
    <rect x="84" y="39" width="6" height="6"/>
    <rect x="108" y="39" width="6" height="6"/>
    <rect x="120" y="39" width="6" height="6"/>

    <rect x="15"  y="60" width="6" height="6"/>
    <rect x="27"  y="60" width="6" height="6"/>
    <rect x="45"  y="60" width="6" height="6"/>
    <rect x="63"  y="60" width="6" height="6"/>
    <rect x="81"  y="60" width="6" height="6"/>
    <rect x="99"  y="60" width="6" height="6"/>
    <rect x="117" y="60" width="6" height="6"/>
    <rect x="135" y="60" width="6" height="6"/>
    <rect x="153" y="60" width="6" height="6"/>
    <rect x="171" y="60" width="6" height="6"/>

    <rect x="21"  y="72" width="6" height="6"/>
    <rect x="39"  y="72" width="6" height="6"/>
    <rect x="57"  y="72" width="6" height="6"/>
    <rect x="75"  y="72" width="6" height="6"/>
    <rect x="93"  y="72" width="6" height="6"/>
    <rect x="111" y="72" width="6" height="6"/>
    <rect x="129" y="72" width="6" height="6"/>
    <rect x="147" y="72" width="6" height="6"/>
    <rect x="165" y="72" width="6" height="6"/>
    <rect x="183" y="72" width="6" height="6"/>

    <rect x="15"  y="84" width="6" height="6"/>
    <rect x="33"  y="84" width="6" height="6"/>
    <rect x="51"  y="84" width="6" height="6"/>
    <rect x="105" y="84" width="6" height="6"/>
    <rect x="123" y="84" width="6" height="6"/>
    <rect x="141" y="84" width="6" height="6"/>
    <rect x="171" y="84" width="6" height="6"/>

    <rect x="27"  y="96" width="6" height="6"/>
    <rect x="45"  y="96" width="6" height="6"/>
    <rect x="63"  y="96" width="6" height="6"/>
    <rect x="153" y="96" width="6" height="6"/>
    <rect x="171" y="96" width="6" height="6"/>

    <rect x="15"  y="108" width="6" height="6"/>
    <rect x="39"  y="108" width="6" height="6"/>
    <rect x="57"  y="108" width="6" height="6"/>
    <rect x="111" y="108" width="6" height="6"/>
    <rect x="135" y="108" width="6" height="6"/>
    <rect x="159" y="108" width="6" height="6"/>
    <rect x="177" y="108" width="6" height="6"/>

    <rect x="33"  y="120" width="6" height="6"/>
    <rect x="51"  y="120" width="6" height="6"/>
    <rect x="69"  y="120" width="6" height="6"/>
    <rect x="87"  y="120" width="6" height="6"/>
    <rect x="105" y="120" width="6" height="6"/>
    <rect x="129" y="120" width="6" height="6"/>
    <rect x="147" y="120" width="6" height="6"/>
    <rect x="165" y="120" width="6" height="6"/>

    <rect x="15"  y="132" width="6" height="6"/>
    <rect x="45"  y="132" width="6" height="6"/>
    <rect x="63"  y="132" width="6" height="6"/>
    <rect x="93"  y="132" width="6" height="6"/>
    <rect x="123" y="132" width="6" height="6"/>
    <rect x="141" y="132" width="6" height="6"/>
    <rect x="183" y="132" width="6" height="6"/>

    <rect x="60"  y="150" width="6" height="6"/>
    <rect x="78"  y="150" width="6" height="6"/>
    <rect x="96"  y="150" width="6" height="6"/>
    <rect x="114" y="150" width="6" height="6"/>
    <rect x="132" y="150" width="6" height="6"/>

    <rect x="72"  y="162" width="6" height="6"/>
    <rect x="90"  y="162" width="6" height="6"/>
    <rect x="108" y="162" width="6" height="6"/>
    <rect x="126" y="162" width="6" height="6"/>
    <rect x="144" y="162" width="6" height="6"/>

    <rect x="60"  y="174" width="6" height="6"/>
    <rect x="84"  y="174" width="6" height="6"/>
    <rect x="102" y="174" width="6" height="6"/>
    <rect x="120" y="174" width="6" height="6"/>
    <rect x="138" y="174" width="6" height="6"/>
  </g>
  <!-- center logo placeholder -->
  <rect x="80" y="80" width="40" height="40" rx="6" fill="#FFCCF2"/>
  <text x="100" y="106" text-anchor="middle" font-family="system-ui" font-size="14" font-weight="800" fill="#0600AB">Rx</text>
</svg>
